<svg width="36" height="36" viewBox="0 0 36 36" fill="none" xmlns="http://www.w3.org/2000/svg">
<path d="M19.8 18L14.1462 11.844C13.9143 11.6098 13.7842 11.2934 13.7842 10.9638C13.7842 10.6342 13.9143 10.3178 14.1462 10.0836C14.2601 9.96795 14.3959 9.87611 14.5456 9.81342C14.6953 9.75073 14.856 9.71844 15.0183 9.71844C15.1806 9.71844 15.3413 9.75073 15.4911 9.81342C15.6408 9.87611 15.7765 9.96795 15.8904 10.0836L22.7844 17.118C23.016 17.3528 23.1459 17.6693 23.1459 17.9991C23.1459 18.3289 23.016 18.6454 22.7844 18.8802L15.8904 25.9146C15.7765 26.0302 15.6408 26.1221 15.4911 26.1848C15.3413 26.2475 15.1806 26.2798 15.0183 26.2798C14.856 26.2798 14.6953 26.2475 14.5456 26.1848C14.3959 26.1221 14.2601 26.0302 14.1462 25.9146C13.9143 25.6804 13.7842 25.364 13.7842 25.0344C13.7842 24.7048 13.9143 24.3884 14.1462 24.1542L19.8 18Z" fill="black"/>
</svg>
