<svg width="17" height="15" viewBox="0 0 17 15" fill="none" xmlns="http://www.w3.org/2000/svg">
<g id="Group">
<path id="Vector" fill-rule="evenodd" clip-rule="evenodd" d="M1.40007 0.200043C0.958227 0.200043 0.599976 0.558294 0.599976 1.00013C0.599976 1.44197 0.958227 1.80009 1.40007 1.80009H2.83606L3.01043 2.72995L4.02573 9.91212C4.08145 10.3067 4.41923 10.6001 4.8178 10.6001H14.7716C15.1697 10.6001 15.5073 10.3073 15.5636 9.91319L16.5921 2.71319C16.6249 2.48363 16.5565 2.25112 16.4046 2.07595C16.2526 1.90064 16.032 1.80006 15.8002 1.80006H4.46398L4.28639 0.852641C4.21541 0.474298 3.88501 0.200012 3.50008 0.200012L1.40007 0.200043ZM5.51264 9.00016L4.72098 3.40027H14.8774L14.0775 9.00016H5.51264Z" fill="#100E3A"/>
<path id="Vector_2" d="M8.60012 13.0002C8.60012 13.8838 7.88372 14.6001 7.00007 14.6001C6.11642 14.6001 5.40002 13.8838 5.40002 13.0002C5.40002 12.1165 6.11642 11.4001 7.00007 11.4001C7.88372 11.4001 8.60012 12.1165 8.60012 13.0002Z" fill="#100E3A"/>
<path id="Vector_3" d="M14.2 13.0002C14.2 13.8838 13.4836 14.6001 12.5999 14.6001C11.7163 14.6001 11 13.8838 11 13.0002C11 12.1165 11.7163 11.4001 12.5999 11.4001C13.4836 11.4001 14.2 12.1165 14.2 13.0002Z" fill="#100E3A"/>
</g>
</svg>
